#!OML:ASF X:\für Bonn\!DataBase\2005_08_11_Bastian_Final\c3d\Bastian.ASF
:FULLY-SPECIFIED
:DEGREES
93
root -7.10307 16.9821 5.06342 539.334 28.8687 -172.428
lowerback 23.5119 0.561828 -5.33742
upperback 14.9822 2.73805 0.33576
thorax 3.3514 2.19204 2.90565
lowerneck -11.3385 -15.0701 -24.2261
upperneck -10.9702 -16.5418 39.1581
head 5.46355 -6.7936 15.831
rclavicle 2.46493e-014 9.54166e-015
rhumerus -26.0049 22.3245 -94.0696
rradius 57.6582
rwrist 11.0256
rhand -16.2635 7.873
rfingers 7.12502
rthumb 9.94591 -21.872
lclavicle 2.46493e-014 9.54166e-015
lhumerus -22.0839 -45.7204 98.4209
lradius 67.9498
lwrist 12.1194
lhand -16.2275 -8.74882
lfingers 7.12502
lthumb 9.98072 20.9945
rfemur 6.46097 -3.85736 22.5627
rtibia 55.855
rfoot 0.38472 -1.34016
rtoes -17.1144
lfemur -26.2536 -4.21623 -8.98224
ltibia 39.8929
lfoot -6.27682 -10.3238
ltoes -32.3985
94
root -7.08448 16.9994 4.96992 539.292 29.0094 -172.437
lowerback 23.6674 0.560978 -5.3938
upperback 15.025 2.73759 0.314835
thorax 3.32826 2.19601 2.9111
lowerneck -11.1979 -15.0159 -24.1254
upperneck -11.1373 -16.446 39.2674
head 5.37394 -6.76578 15.8931
rclavicle 9.54166e-015 8.74653e-015
rhumerus -26.0005 22.0947 -94.0612
rradius 57.8153
rwrist 11.0747
rhand -15.9551 7.75935
rfingers 7.12502
rthumb 10.2435 -21.9712
lclavicle 9.54166e-015 8.74653e-015
lhumerus -22.2111 -45.6425 98.3339
lradius 68.0434
lwrist 12.0379
lhand -16.4439 -8.60657
lfingers 7.12502
lthumb 9.77188 21.1467
rfemur 5.74262 -4.0018 22.3646
rtibia 57.1435
rfoot 1.40742 -1.62109
rtoes -16.9467
lfemur -25.8175 -4.14807 -9.14046
ltibia 39.9051
lfoot -6.35724 -10.2486
ltoes -31.5899
95
root -7.06596 17.0152 4.87685 539.24 29.1923 -172.423
lowerback 23.8495 0.572223 -5.47655
upperback 15.0544 2.74075 0.339857
thorax 3.27471 2.19667 2.97855
lowerneck -11.0443 -14.9463 -24.1031
upperneck -11.2577 -16.3402 39.3419
head 5.29276 -6.73554 15.96
rclavicle -4.92986e-014 4.77083e-014
rhumerus -26.1179 21.9128 -94.0068
rradius 58.0612
rwrist 11.2018
rhand -15.6437 7.53741
rfingers 7.12502
rthumb 10.5438 -22.1781
lclavicle -4.92986e-014 4.77083e-014
lhumerus -22.4081 -45.4288 98.3822
lradius 68.1234
lwrist 11.8919
lhand -16.6415 -8.49631
lfingers 7.12502
lthumb 9.58125 21.2658
rfemur 5.02202 -4.08482 22.2126
rtibia 58.4077
rfoot 2.36062 -1.98475
rtoes -16.9386
lfemur -25.3464 -4.16444 -9.26459
ltibia 39.925
lfoot -6.44794 -10.0686
ltoes -30.7767
96
root -7.04748 17.03 4.78608 539.192 29.3868 -172.433
lowerback 24.0178 0.587577 -5.53424
upperback 15.0862 2.75548 0.338065
thorax 3.2309 2.20639 3.0011
lowerneck -10.8697 -14.8888 -24.0823
upperneck -11.4091 -16.2481 39.4394
head 5.20829 -6.71418 16.0346
rclavicle -2.54444e-014 -7.15625e-015
rhumerus -26.2038 21.6808 -93.9641
rradius 58.2792
rwrist 11.3127
rhand -15.4053 7.27207
rfingers 7.12502
rthumb 10.7738 -22.4316
lclavicle -2.54444e-014 -7.15625e-015
lhumerus -22.5685 -45.2881 98.3794
lradius 68.1741
lwrist 11.7161
lhand -16.7622 -8.39132
lfingers 7.12502
lthumb 9.46484 21.3761
rfemur 4.26414 -4.12203 22.0777
rtibia 59.6466
rfoot 3.21906 -2.42679
rtoes -17.1947
lfemur -24.9052 -4.15704 -9.41336
ltibia 39.9586
lfoot -6.56577 -9.87814
ltoes -30.0004
97
root -7.02854 17.0433 4.69541 539.118 29.6045 -172.443
lowerback 24.2206 0.607289 -5.61074
upperback 15.1096 2.76811 0.353116
thorax 3.16065 2.21318 3.0511
lowerneck -10.7097 -14.8267 -24.0924
upperneck -11.5358 -16.1507 39.5397
head 5.13505 -6.68813 16.1188
rclavicle 3.97569e-015 -2.70347e-014
rhumerus -26.3487 21.4292 -93.8947
rradius 58.515
rwrist 11.4871
rhand -15.1869 6.98749
rfingers 7.12502
rthumb 10.9845 -22.7051
lclavicle 3.97569e-015 -2.70347e-014
lhumerus -22.7588 -45.0931 98.4253
lradius 68.2381
lwrist 11.5612
lhand -16.8216 -8.28583
lfingers 7.12502
lthumb 9.40743 21.4842
rfemur 3.52425 -4.07861 21.9843
rtibia 60.8307
rfoot 4.02186 -2.95517
rtoes -17.5089
lfemur -24.4346 -4.19199 -9.55676
ltibia 40.0057
lfoot -6.71223 -9.65399
ltoes -29.1623
98
root -7.00995 17.0555 4.6067 539.053 29.8479 -172.449
lowerback 24.422 0.641054 -5.67967
upperback 15.1302 2.79892 0.372863
thorax 3.08614 2.22911 3.09783
lowerneck -10.561 -14.7688 -24.0857
upperneck -11.6378 -16.0667 39.6063
head 5.06641 -6.66807 16.1796
rclavicle -4.45278e-014 3.57812e-014
rhumerus -26.5139 21.1541 -93.8136
rradius 58.7503
rwrist 11.657
rhand -15.0702 6.72089
rfingers 7.12502
rthumb 11.097 -22.9657
lclavicle -4.45278e-014 3.57812e-014
lhumerus -22.9019 -44.9096 98.4719
lradius 68.241
lwrist 11.3592
lhand -16.8283 -8.18407
lfingers 7.12502
lthumb 9.40098 21.5863
rfemur 2.7592 -3.98027 21.9315
rtibia 61.9685
rfoot 4.75086 -3.51934
rtoes -17.7827
lfemur -23.9816 -4.2405 -9.68996
ltibia 40.0671
lfoot -6.8538 -9.39908
ltoes -28.2901
99
root -6.99176 17.0659 4.51865 538.992 30.1026 -172.427
lowerback 24.6394 0.662273 -5.71706
upperback 15.1455 2.8166 0.396702
thorax 2.9991 2.24039 3.133
lowerneck -10.4194 -14.7066 -24.0906
upperneck -11.7357 -15.9742 39.6775
head 4.99946 -6.64285 16.2475
rclavicle 1.74931e-014 -5.00937e-014
rhumerus -26.6703 20.8795 -93.7307
rradius 58.9359
rwrist 11.7887
rhand -15.0199 6.5061
rfingers 7.12502
rthumb 11.1455 -23.1779
lclavicle 1.74931e-014 -5.00937e-014
lhumerus -23.0684 -44.6928 98.5213
lradius 68.2556
lwrist 11.1648
lhand -16.8338 -8.13578
lfingers 7.12502
lthumb 9.39572 21.6348
rfemur 2.00052 -3.81695 21.9479
rtibia 63.0442
rfoot 5.43607 -4.13536
rtoes -17.8817
lfemur -23.5298 -4.27285 -9.80288
ltibia 40.1415
lfoot -7.02196 -9.11467
ltoes -27.4773
100
root -6.97378 17.0749 4.43227 538.92 30.3459 -172.43
lowerback 24.8396 0.671171 -5.76624
upperback 15.1816 2.82286 0.4183
thorax 2.94583 2.24588 3.17675
lowerneck -10.3225 -14.6539 -24.1111
upperneck -11.841 -15.8819 39.7572
head 4.94155 -6.61188 16.3204
rclavicle -2.94201e-014 5.725e-014
rhumerus -26.8285 20.5951 -93.6248
rradius 59.1306
rwrist 11.8953
rhand -15.0617 6.39332
rfingers 7.12502
rthumb 11.1053 -23.2928
lclavicle -2.94201e-014 5.725e-014
lhumerus -23.1388 -44.491 98.5062
lradius 68.2459
lwrist 10.9798
lhand -16.8127 -8.09067
lfingers 7.12502
lthumb 9.41611 21.679
rfemur 1.22621 -3.64755 21.9532
rtibia 64.0901
rfoot 6.03162 -4.74765
rtoes -17.4533
lfemur -23.0934 -4.35043 -9.93081
ltibia 40.2244
lfoot -7.18353 -8.83723
ltoes -26.4124
101
root -6.95609 17.0831 4.34621 538.846 30.6263 -172.409
lowerback 25.0622 0.690912 -5.78848
upperback 15.2075 2.84426 0.446277
thorax 2.86873 2.26057 3.20733
lowerneck -10.2447 -14.6069 -24.1134
upperneck -11.9011 -15.8102 39.8004
head 4.89695 -6.58943 16.3658
rclavicle 8.34896e-014 -3.97569e-015
rhumerus -27.0169 20.282 -93.5094
rradius 59.281
rwrist 11.9258
rhand -15.203 6.40865
rfingers 7.12502
rthumb 10.9689 -23.2848
lclavicle 8.34896e-014 -3.97569e-015
lhumerus -23.206 -44.2456 98.5362
lradius 68.1961
lwrist 10.7958
lhand -16.7746 -8.01533
lfingers 7.12502
lthumb 9.4528 21.7527
rfemur 0.456906 -3.41941 22.0057
rtibia 65.0925
rfoot 6.50321 -5.34766
rtoes -16.8425
lfemur -22.6426 -4.37051 -10.0455
ltibia 40.3162
lfoot -7.36448 -8.56645
ltoes -25.5122
102
root -6.93842 17.0904 4.26189 538.739 30.8995 -172.436
lowerback 25.3032 0.710616 -5.84775
upperback 15.2349 2.85883 0.468662
thorax 2.78616 2.27041 3.25369
lowerneck -10.2125 -14.5725 -24.1225
upperneck -11.9365 -15.7549 39.8382
head 4.87201 -6.56925 16.4033
rclavicle 1.19271e-014 1.27222e-014
rhumerus -27.2096 19.9321 -93.3801
rradius 59.4197
rwrist 11.9627
rhand -15.4023 6.48447
rfingers 7.12502
rthumb 10.7767 -23.2191
lclavicle 1.19271e-014 1.27222e-014
lhumerus -23.2441 -44.0409 98.5301
lradius 68.1344
lwrist 10.5789
lhand -16.72 -7.97987
lfingers 7.12502
lthumb 9.5055 21.7857
rfemur -0.319442 -3.17717 22.027
rtibia 66.071
rfoot 6.81938 -5.86858
rtoes -15.9896
lfemur -22.1938 -4.3926 -10.2118
ltibia 40.4075
lfoot -7.54817 -8.29
ltoes -24.6506
103
root -6.91966 17.0968 4.17806 538.652 31.1607 -172.44
lowerback 25.5151 0.718824 -5.88499
upperback 15.2659 2.86367 0.502018
thorax 2.72198 2.27526 3.3031
lowerneck -10.1903 -14.5405 -24.1536
upperneck -11.9719 -15.6996 39.8907
head 4.8539 -6.54739 16.4523
rclavicle -1.22451e-013 1.08139e-013
rhumerus -27.3579 19.5903 -93.2357
rradius 59.4436
rwrist 11.9166
rhand -15.6692 6.70272
rfingers 7.12502
rthumb 10.5193 -23.0141
lclavicle -1.22451e-013 1.08139e-013
lhumerus -23.2505 -43.8132 98.5272
lradius 68.0682
lwrist 10.3663
lhand -16.6135 -7.89606
lfingers 7.12502
lthumb 9.60827 21.8648
rfemur -1.11622 -2.92423 22.0885
rtibia 67.0079
rfoot 6.9736 -6.3516
rtoes -15.2242
lfemur -21.7542 -4.42833 -10.3523
ltibia 40.5022
lfoot -7.7605 -8.01084
ltoes -23.5836
104
root -6.90196 17.1025 4.09485 538.566 31.4321 -172.445
lowerback 25.7274 0.718547 -5.90211
upperback 15.2963 2.86094 0.531224
thorax 2.65801 2.27773 3.33834
lowerneck -10.1829 -14.5091 -24.1833
upperneck -11.9979 -15.6446 39.9386
head 4.84 -6.5239 16.4982
rclavicle 1.19271e-014 3.02153e-014
rhumerus -27.4899 19.1978 -93.1019
rradius 59.4042
rwrist 11.9162
rhand -15.9446 6.99399
rfingers 7.12502
rthumb 10.2536 -22.7361
lclavicle 1.19271e-014 3.02153e-014
lhumerus -23.2215 -43.5652 98.5232
lradius 67.9806
lwrist 10.1799
lhand -16.509 -7.79092
lfingers 7.12502
lthumb 9.70908 21.9653
rfemur -1.91761 -2.65443 22.1524
rtibia 67.9133
rfoot 6.91987 -6.76727
rtoes -14.5514
lfemur -21.3278 -4.41414 -10.4996
ltibia 40.6019
lfoot -7.93625 -7.77991
ltoes -22.4224
105
root -6.88437 17.1078 4.01336 538.476 31.723 -172.444
lowerback 25.9538 0.727355 -5.91452
upperback 15.3155 2.86688 0.562097
thorax 2.57387 2.28456 3.36957
lowerneck -10.189 -14.4767 -24.1753
upperneck -12.0061 -15.5922 39.9522
head 4.82368 -6.50077 16.518
rclavicle 3.57812e-014 -2.62396e-014
rhumerus -27.6157 18.7637 -92.9698
rradius 59.3158
rwrist 11.8779
rhand -16.22 7.25136
rfingers 7.12502
rthumb 9.98795 -22.4917
lclavicle 3.57812e-014 -2.62396e-014
lhumerus -23.2202 -43.3459 98.5089
lradius 67.9251
lwrist 10.0358
lhand -16.3432 -7.66686
lfingers 7.12502
lthumb 9.86905 22.0818
rfemur -2.72391 -2.35272 22.2404
rtibia 68.7781
rfoot 6.7566 -7.14498
rtoes -14.1
lfemur -20.9087 -4.36734 -10.6484
ltibia 40.7137
lfoot -8.16381 -7.51355
ltoes -21.6686
106
root -6.86643 17.1121 3.9326 538.361 32.0166 -172.444
lowerback 26.1696 0.726788 -5.92714
upperback 15.3616 2.86949 0.598297
thorax 2.52651 2.29065 3.4095
lowerneck -10.2386 -14.4545 -24.1954
upperneck -11.996 -15.5503 39.9632
head 4.8258 -6.47728 16.5377
rclavicle -7.4743e-014 3.73715e-014
rhumerus -27.6851 18.3421 -92.8214
rradius 59.1626
rwrist 11.8546
rhand -16.5027 7.44948
rfingers 7.12502
rthumb 9.71515 -22.3065
lclavicle -7.4743e-014 3.73715e-014
lhumerus -23.1878 -43.1232 98.4614
lradius 67.8733
lwrist 9.87995
lhand -16.2177 -7.58455
lfingers 7.12502
lthumb 9.99011 22.1584
rfemur -3.50989 -2.0191 22.3456
rtibia 69.6088
rfoot 6.41139 -7.50267
rtoes -13.8671
lfemur -20.4834 -4.28842 -10.8075
ltibia 40.8477
lfoot -8.40576 -7.26863
ltoes -21.1865
107
root -6.84877 17.1133 3.85164 538.257 32.3223 -172.445
lowerback 26.358 0.721611 -5.91413
upperback 15.4046 2.87042 0.619598
thorax 2.48921 2.29719 3.41996
lowerneck -10.3098 -14.4352 -24.1724
upperneck -11.9656 -15.5158 39.9725
head 4.83504 -6.45482 16.5444
rclavicle -2.54444e-014 1.59028e-014
rhumerus -27.7377 17.8422 -92.6769
rradius 58.9551
rwrist 11.896
rhand -16.7179 7.589
rfingers 7.12502
rthumb 9.50757 -22.1765
lclavicle -2.54444e-014 1.59028e-014
lhumerus -23.152 -42.9374 98.3865
lradius 67.8462
lwrist 9.759
lhand -16.0424 -7.46552
lfingers 7.12502
lthumb 10.1592 22.2692
rfemur -4.30891 -1.63249 22.4663
rtibia 70.3998
rfoot 5.94249 -7.85842
rtoes -13.6105
lfemur -20.0644 -4.24169 -10.952
ltibia 40.9954
lfoot -8.6631 -7.00006
ltoes -20.5354
